<?xml version="1.0" encoding="utf-8"?>
<!-- Generator: Adobe Illustrator 28.1.0, SVG Export Plug-In . SVG Version: 6.00 Build 0)  -->
<svg version="1.1" id="Слой_1" xmlns="http://www.w3.org/2000/svg" xmlns:xlink="http://www.w3.org/1999/xlink" x="0px" y="0px"
	 viewBox="0 0 800 800" style="enable-background:new 0 0 800 800;" xml:space="preserve">
<style type="text/css">
	.st0{fill:#4A9CD3;}
</style>
<path class="st0" d="M731.9,420.6c-4.1-52.2-18.4-90.6-49.1-89.7c-0.9,0-1.6,0.7-1.5,1.6c0,0.2,0,0.4,0.1,0.6
	c8,19.7,15.1,57.7,14.3,90.7c0,0.9-0.6,1.6-1.5,1.6c-0.9,0-1.6-0.6-1.6-1.5c-3.4-33.1-11.1-64.4-25.3-92.9
	c-71.9-144.2-247-202.8-391.2-130.9c-77.8,38.8-134.3,110.3-154,195c-0.6,2.5-2.6,4.5-5.2,4.9l-13.5,1.9
	c-26.9,3.8-42,54.5-33.9,113.3s36.7,103.4,63.6,99.7l20.7-2.9c2.4-0.3,4.8,0.8,6.1,2.9c86.4,136,266.7,176.1,402.7,89.7
	c63.7-40.5,109.2-104,127-177.3c0.6-2.7,3-4.7,5.8-4.8l6.9-0.4C725.8,518.1,736.1,473.3,731.9,420.6z M147.7,422.5
	c-0.4-0.7-0.2-1.7,0.6-2.1c0.6-0.4,1.4-0.2,1.9,0.3c15,15.6,31.6,43.2,36.4,77.9c5.1,36-3.5,70.6-14.3,90.4c-0.4,0.7-1.4,1-2.1,0.6
	c-0.6-0.3-0.9-1-0.7-1.7c6.4-22.6,8.1-52.9,3.5-85.5C168.6,470.6,159.4,442.5,147.7,422.5z M427,594.1c-12.4,0-22.7-9.3-24.1-21.6
	c-1.4-13.3,8.2-25.2,21.5-26.6c13.3-1.4,25.2,8.2,26.6,21.5c1.4,13.3-8.2,25.2-21.5,26.6C428.7,594,427.8,594.1,427,594.1z
	 M554.9,586.7c-13.2,0.6-24.5-9.6-25.2-22.8c-0.6-13.2,9.6-24.5,22.8-25.2c13.2-0.6,24.4,9.5,25.1,22.7
	C578.4,574.7,568.1,586,554.9,586.7z"/>
<path class="st0" d="M258.6,109.4L258.6,109.4c0.1,0.1,0.1,0.2,0.2,0.3l0,0c0.2,0.3,0.3,0.5,0.5,0.8v0.2c0.7,1.7,2,3.2,3.6,4.2
	c3.1,2.3,7.8,3.8,13.4,4.7c6.2,0.8,12.4,1.1,18.6,0.8c1.5,0,3-0.1,4.5-0.3c-0.6-0.6-1.2-1.4-1.9-2h-2c-6.1,0.2-12.2-0.3-18.1-1.4
	c-4.7-0.7-9.2-2.5-13.1-5.3c-0.8-0.6-1.5-1.4-2.2-2.2c-0.3-1.2-0.3-2.4,0-3.6c0.8-3.6,3.8-7.5,8.6-11.6c5.2-4.3,11-7.9,17-10.9
	c1.4-0.6,2.7-1.4,4.1-2c0.2-0.2,0.5-0.2,0.8-0.3c-1.3,5.4-1.4,11-0.3,16.4c3.6,18.6,18.1,31.7,36.2,32.2l6.2,38l19.8-4.7l-6.2-36.4
	c16.9-7.2,25.5-25.2,21.9-43.8c-1-5.3-3.1-10.4-6.1-14.8c-8.3-1.2-24.4-1.2-45.6,3.3c1.7-0.5,3.3-1.1,5-1.6
	c11-3.1,22.2-5.3,33.6-6.6c0.9-0.2,1.9-0.2,2.8-0.3l5.5-0.5h0.9c5.6-0.3,11.3-0.2,16.9,0.5c3.2,0.4,6.4,1.1,9.5,2.2
	c-1,1.5-1.4,3.2-1.4,5c0,4.2,2.7,7.8,6.7,9.1l0,0c-1,1.5-2.1,3-3.3,4.4c-1.4,1.6-2.9,3-4.5,4.4c-1.7,1.4-3.6,2.8-5.5,4.2l-10.2,5.9
	l-0.5,2.3c0.1,0,0.2-0.1,0.3-0.2l13.1-7.3c1.9-1.2,3.8-2.5,5.3-3.8c1.8-1.3,3.4-2.8,5-4.4c1.3-1.4,2.6-2.8,3.7-4.4l0.5-0.9
	c4.8-0.6,8.4-4.6,8.4-9.4c0-5.2-4.2-9.5-9.4-9.5c0,0-0.1,0-0.1,0c-1.5,0-3,0.4-4.4,1.1c-4-2.2-8.3-3.6-12.8-4.2
	c-8-1.3-16.1-1.6-24.2-0.9c-1.1,0-2.2,0.1-3.3,0.3c-1,0.2-2.1,0.3-3.1,0.3c-8.6-5.7-19.1-7.8-29.2-5.8c-11.8,2.3-22,9.7-27.8,20.3
	c-2,0.8-4.1,1.7-5.9,2.7c-1.1,0.5-2,0.9-3.1,1.4c-7.9,3.7-15.2,8.5-21.7,14.2c-4.8,4.5-7.7,8.9-8.3,13c-0.4,2.1,0,4.4,1.1,6.2
	C258.3,108.8,258.5,109.1,258.6,109.4z"/>
</svg>
